<svg xmlns="http://www.w3.org/2000/svg" viewBox="0 0 24 24" aria-hidden="true">
  <path fill="#24292f" d="M12 2a10 10 0 0 0-3.2 19.5c.5.1.7-.2.7-.5v-1.9c-2.8.6-3.4-1.2-3.4-1.2-.5-1.1-1.1-1.4-1.1-1.4-.9-.6.1-.6.1-.6 1 0 1.6 1.1 1.6 1.1.9 1.6 2.4 1.1 3 .9.1-.7.4-1.1.7-1.4-2.2-.3-4.6-1.1-4.6-4.9 0-1.1.4-2 1.1-2.7-.1-.3-.5-1.3.1-2.7 0 0 .9-.3 2.8 1a9.6 9.6 0 0 1 5.2 0c2-1.3 2.8-1 2.8-1 .6 1.4.2 2.4.1 2.7.7.7 1.1 1.6 1.1 2.7 0 3.8-2.3 4.6-4.6 4.9.4.3.7 1 .7 2v3c0 .3.2.6.7.5A10 10 0 0 0 12 2Z"/>
</svg>
