<?xml version="1.0" encoding="UTF-8" standalone="no"?>
<svg
   version="1.1"
   id="Layer_1"
   x="0px"
   y="0px"
   width="198.36823"
   viewBox="0 0 198.36823 150.9899"
   enable-background="new 0 0 224 192"
   xml:space="preserve"
   sodipodi:docname="logo.svg"
   inkscape:version="1.3.2 (091e20e, 2023-11-25, custom)"
   height="150.9899"
   xmlns:inkscape="http://www.inkscape.org/namespaces/inkscape"
   xmlns:sodipodi="http://sodipodi.sourceforge.net/DTD/sodipodi-0.dtd"
   xmlns="http://www.w3.org/2000/svg"
   xmlns:svg="http://www.w3.org/2000/svg"><defs
   id="defs4287" /><sodipodi:namedview
   id="namedview4285"
   pagecolor="#ffffff"
   bordercolor="#cccccc"
   borderopacity="1"
   inkscape:showpageshadow="0"
   inkscape:pageopacity="0"
   inkscape:pagecheckerboard="0"
   inkscape:deskcolor="#d1d1d1"
   showgrid="false"
   inkscape:zoom="1.7383042"
   inkscape:cx="86.866269"
   inkscape:cy="106.7132"
   inkscape:window-width="1920"
   inkscape:window-height="1129"
   inkscape:window-x="-8"
   inkscape:window-y="-8"
   inkscape:window-maximized="1"
   inkscape:current-layer="Layer_1" />
<path
   fill="#000000"
   opacity="1"
   stroke="none"
   d="m 75.113808,150.9899 c -3.270435,-17.14196 -4.363624,-17.6266 -21.44991,-12.3162 -8.509607,2.64477 -26.399739,5.34642 -36.836001,6.11506 C 2.8905485,145.81531 -2.0718794,141.44791 2.473949,139.76605 16.286143,134.65584 30.905854,135.1717 45.166113,127.73649 32.84637,116.9848 15.285463,119.2422 3.7954482,108.83263 c 4.0492065,-7.17077 9.0851328,-4.96693 13.6413848,-3.80294 13.454686,3.43742 27.002236,6.62244 40.228625,10.80651 10.204649,3.22814 13.957733,-0.3059 13.872902,-10.23417 C 71.436313,93.683177 71.54186,81.76265 71.48004,69.843241 71.45702,65.352398 71.738562,59.759956 66.38263,58.618525 44.472573,53.949231 23.196596,44.737594 0,47.77712 0.0655954,35.271566 2.8515134,32.95725 14.648018,35.379118 27.956691,38.111441 41.116857,42.914601 55.129138,40.591441 54.069418,20.675679 46.463945,12.874966 27.098624,10.645665 38.230293,-4.1949318 50.584524,-3.3918498 58.233332,12.258159 62.985808,21.982088 68.794494,31.165162 76.716,39.703015 89.08662,31.504095 91.625428,20.433289 88.097701,6.6039546 99.878199,4.007437 108.62529,7.7406956 117.40684,14.741814 112.60763,24.503501 97.131966,23.500587 97.318387,37.738626 108.21922,35.672019 120.69829,33.382424 126.92624,25.969287 139.77279,10.678065 147.73117,22.09654 160.09036,28.404227 136.077,37.767443 114.29891,46.464295 92.350334,54.707204 84.54192,57.639701 80.144813,60.919588 81.814103,70.776058 83.847688,82.783642 80.52549,95.524536 86.522283,108.96562 117.93462,93.552814 139.0442,68.073703 160.71928,40.867652 c 6.56356,-0.827806 12.47294,2.345963 18.73223,9.485974 -10.83704,3.905148 -18.24517,9.697082 -23.65064,20.158541 14.8175,0.640838 27.57006,0.7899 34.43803,-14.882582 9.78945,6.969494 9.10038,15.059891 6.34411,24.736344 -14.22508,-2.645112 -27.49432,-1.031537 -40.17712,6.390601 7.14865,13.7195 14.84511,3.2479 25.2897,-0.321087 -2.9064,14.775817 -10.62886,22.488387 -23.42475,32.933827 3.65672,-18.05089 -4.46241,-25.470538 -16.05816,-27.20356 -16.60178,-2.481164 -23.40538,14.28329 -37.05105,20.79688 12.90842,9.41363 27.28807,-4.12845 38.78728,4.5938 -0.11785,8.86424 -6.62305,8.20353 -11.63513,8.74461 -11.34268,1.22454 -22.72703,2.23047 -34.120721,2.76337 -9.428572,0.44099 -13.749858,12.53564 -12.089148,21.85451"
   id="path4274"
   sodipodi:nodetypes="cssscccsssccsccsccccscsscccccccccsccssc"
   inkscape:export-filename="logo.png"
   inkscape:export-xdpi="500"
   inkscape:export-ydpi="500"
   style="stroke-width:2.9801" />




</svg>
