<?xml version="1.0" encoding="UTF-8" standalone="no"?>
<svg
   version="1.1"
   id="Layer_1"
   x="0px"
   y="0px"
   width="84.464104"
   viewBox="0 0 84.464104 64.290672"
   enable-background="new 0 0 224 192"
   xml:space="preserve"
   sodipodi:docname="logo_gradient.svg"
   inkscape:version="1.2.1 (9c6d41e410, 2022-07-14)"
   height="64.290672"
   xmlns:inkscape="http://www.inkscape.org/namespaces/inkscape"
   xmlns:sodipodi="http://sodipodi.sourceforge.net/DTD/sodipodi-0.dtd"
   xmlns:xlink="http://www.w3.org/1999/xlink"
   xmlns="http://www.w3.org/2000/svg"
   xmlns:svg="http://www.w3.org/2000/svg"><defs
   id="defs4287"><linearGradient
     inkscape:collect="always"
     id="linearGradient1645"><stop
       style="stop-color:#feda75;stop-opacity:1;"
       offset="0"
       id="stop1641" /><stop
       style="stop-color:#fa7e1e;stop-opacity:1;"
       offset="0.18167204"
       id="stop1649" /><stop
       style="stop-color:#d62976;stop-opacity:1;"
       offset="0.50562704"
       id="stop1651" /><stop
       style="stop-color:#962fbf;stop-opacity:1;"
       offset="0.83641481"
       id="stop1653" /><stop
       style="stop-color:#4f5bd5;stop-opacity:1;"
       offset="1"
       id="stop1643" /></linearGradient><radialGradient
     inkscape:collect="always"
     xlink:href="#linearGradient1645"
     id="radialGradient1647"
     cx="34.126534"
     cy="58.041798"
     fx="34.126534"
     fy="58.041798"
     r="42.232052"
     gradientTransform="matrix(1.1878243,-0.00481601,0.0046677,1.1512467,-6.5074002,-13.56159)"
     gradientUnits="userSpaceOnUse"
     spreadMethod="pad" /></defs><sodipodi:namedview
   id="namedview4285"
   pagecolor="#ffffff"
   bordercolor="#cccccc"
   borderopacity="1"
   inkscape:showpageshadow="0"
   inkscape:pageopacity="0"
   inkscape:pagecheckerboard="0"
   inkscape:deskcolor="#d1d1d1"
   showgrid="false"
   inkscape:zoom="9.8333334"
   inkscape:cx="47.084745"
   inkscape:cy="35.338983"
   inkscape:window-width="1920"
   inkscape:window-height="1112"
   inkscape:window-x="-8"
   inkscape:window-y="-8"
   inkscape:window-maximized="1"
   inkscape:current-layer="Layer_1" />
<path
   fill="#000000"
   opacity="1"
   stroke="none"
   d="M 31.983049,64.290675 C 30.590516,56.991716 30.125042,56.785363 22.849795,59.046502 19.226451,60.172631 11.60893,61.322978 7.165227,61.650261 1.23078,62.087363 -0.882195,60.227747 1.053394,59.511619 6.934551,57.335723 13.159544,57.55537 19.231484,54.389498 13.985805,49.811488 6.508467,50.772677 1.616081,46.340338 c 1.72413,-3.053275 3.8684,-2.114893 5.808427,-1.619272 5.728932,1.463638 11.497405,2.819801 17.129129,4.601355 4.345084,1.374526 5.943127,-0.130251 5.907006,-4.357654 -0.04345,-5.074981 0.0015,-10.150677 -0.02483,-15.225896 -0.0098,-1.912177 0.110077,-4.293408 -2.170449,-4.779423 C 18.936179,22.971288 9.876984,19.049023 0,20.343237 c 0.02793,-5.324797 1.214159,-6.31022 6.237046,-5.279002 5.66676,1.163409 11.270287,3.208568 17.23664,2.219379 C 23.022463,8.8035909 19.784094,5.4820899 11.538446,4.5328659 c 4.739804,-6.319045 10.000168,-5.977097 13.256989,0.686591 2.023578,4.140396 4.496885,8.0504991 7.869819,11.6858701 5.267342,-3.491055 6.348353,-8.2049441 4.846266,-14.0933991 5.016068,-1.105583 8.74053,0.484018 12.479672,3.465056 -2.043478,4.1564731 -8.632931,3.7294381 -8.553554,9.7919171 4.641511,-0.87995 9.955031,-1.854847 12.606861,-5.01132 5.469987,-6.5109191 8.858626,-1.6489951 14.121105,1.036784 -10.224761,3.986806 -19.497753,7.689878 -28.843336,11.199664 -3.32478,1.248641 -3.758861,2.932836 -3.335723,6.770121 0.568367,5.154326 -0.261048,10.681586 0.854171,16.332815 13.375203,-6.562689 22.363542,-17.411554 31.592679,-28.995742 2.794724,-0.352475 5.310902,0.998898 7.976079,4.039076 -4.614354,1.662791 -7.768691,4.128965 -10.070313,8.583397 6.309212,0.272865 11.739176,0.336335 14.66353,-6.336922 4.168285,2.967572 3.874885,6.412419 2.701275,10.5326 -6.056957,-1.126274 -11.706926,-0.439223 -17.107194,2.721083 3.043856,5.841689 6.320969,1.382938 10.768221,-0.136717 -1.237535,6.291464 -4.525708,9.575431 -9.974134,14.023039 1.557007,-7.685967 -1.900068,-10.845213 -6.837478,-11.583123 -7.068946,-1.056466 -9.965884,6.081748 -15.776132,8.855196 5.496331,4.008273 11.61911,-1.757872 16.515412,1.956016 -0.05018,3.774344 -2.82006,3.493021 -4.954175,3.723407 -4.829657,0.521403 -9.67705,0.949721 -14.528417,1.176626 -4.014635,0.187772 -5.854615,5.337609 -5.147494,9.305529"
   id="path4274"
   sodipodi:nodetypes="cssscccsssccsccsccccscsscccccccccsccssc"
   inkscape:export-filename="logo.png"
   inkscape:export-xdpi="500"
   inkscape:export-ydpi="500"
   style="fill:url(#radialGradient1647);fill-opacity:1;stroke-width:1.26891" />




</svg>
